<svg width="900" height="600" xmlns="http://www.w3.org/2000/svg">
  <rect x="370" y="40" width="160" height="50" rx="10" fill="#e3e3e3" stroke="#0576c1" stroke-width="2"/>
  <text x="450" y="70" font-size="18" text-anchor="middle" fill="#0576c1">Home (index.html)</text>

  <!-- Main nav links -->
  <rect x="80" y="140" width="160" height="50" rx="10" fill="#fff" stroke="#1976d2" stroke-width="2"/>
  <text x="160" y="170" font-size="16" text-anchor="middle" fill="#1976d2">About Us</text>
  <rect x="280" y="140" width="160" height="50" rx="10" fill="#fff" stroke="#1976d2" stroke-width="2"/>
  <text x="360" y="170" font-size="16" text-anchor="middle" fill="#1976d2">Dashboard</text>
  <rect x="480" y="140" width="160" height="50" rx="10" fill="#fff" stroke="#1976d2" stroke-width="2"/>
  <text x="560" y="170" font-size="16" text-anchor="middle" fill="#1976d2">Register</text>
  <rect x="680" y="140" width="160" height="50" rx="10" fill="#fff" stroke="#1976d2" stroke-width="2"/>
  <text x="760" y="170" font-size="16" text-anchor="middle" fill="#1976d2">Login</text>

  <!-- Second row -->
  <rect x="180" y="240" width="160" height="50" rx="10" fill="#fff" stroke="#1976d2" stroke-width="2"/>
  <text x="260" y="270" font-size="16" text-anchor="middle" fill="#1976d2">Results</text>
  <rect x="380" y="240" width="160" height="50" rx="10" fill="#fff" stroke="#1976d2" stroke-width="2"/>
  <text x="460" y="270" font-size="16" text-anchor="middle" fill="#1976d2">Contact Us</text>
  <rect x="580" y="240" width="160" height="50" rx="10" fill="#fff" stroke="#1976d2" stroke-width="2"/>
  <text x="660" y="270" font-size="16" text-anchor="middle" fill="#1976d2">Profile</text>

  <!-- Other pages -->
  <rect x="80" y="340" width="160" height="50" rx="10" fill="#fff" stroke="#888" stroke-width="2"/>
  <text x="160" y="370" font-size="15" text-anchor="middle" fill="#888">Admin</text>
  <rect x="280" y="340" width="160" height="50" rx="10" fill="#fff" stroke="#888" stroke-width="2"/>
  <text x="360" y="370" font-size="15" text-anchor="middle" fill="#888">Feedback</text>
  <rect x="480" y="340" width="160" height="50" rx="10" fill="#fff" stroke="#888" stroke-width="2"/>
  <text x="560" y="370" font-size="15" text-anchor="middle" fill="#888">Other</text>

  <!-- Arrows from Home -->
  <line x1="450" y1="90" x2="160" y2="140" stroke="#0576c1" stroke-width="2" marker-end="url(#arrow)"/>
  <line x1="450" y1="90" x2="360" y2="140" stroke="#0576c1" stroke-width="2" marker-end="url(#arrow)"/>
  <line x1="450" y1="90" x2="560" y2="140" stroke="#0576c1" stroke-width="2" marker-end="url(#arrow)"/>
  <line x1="450" y1="90" x2="760" y2="140" stroke="#0576c1" stroke-width="2" marker-end="url(#arrow)"/>

  <!-- Arrows from nav to second row -->
  <line x1="160" y1="190" x2="260" y2="240" stroke="#1976d2" stroke-width="2" marker-end="url(#arrow)"/>
  <line x1="360" y1="190" x2="460" y2="240" stroke="#1976d2" stroke-width="2" marker-end="url(#arrow)"/>
  <line x1="560" y1="190" x2="660" y2="240" stroke="#1976d2" stroke-width="2" marker-end="url(#arrow)"/>

  <!-- Arrows from second row to other pages -->
  <line x1="260" y1="290" x2="160" y2="340" stroke="#888" stroke-width="2" marker-end="url(#arrow)"/>
  <line x1="460" y1="290" x2="360" y2="340" stroke="#888" stroke-width="2" marker-end="url(#arrow)"/>
  <line x1="660" y1="290" x2="560" y2="340" stroke="#888" stroke-width="2" marker-end="url(#arrow)"/>

  <defs>
    <marker id="arrow" markerWidth="10" markerHeight="10" refX="5" refY="5" orient="auto" markerUnits="strokeWidth">
      <path d="M0,0 L10,5 L0,10 L3,5 Z" fill="#0576c1" />
    </marker>
  </defs>
</svg>
